<svg width="592" height="654" viewBox="0 0 592 654" fill="none" xmlns="http://www.w3.org/2000/svg">
<g clip-path="url(#clip0_87_1439)">
<path d="M49.047 622.475C49.047 623.5 46.9489 624.392 43.8135 624.885C42.2298 625.134 40.9846 626.38 40.736 627.965C40.2453 631.103 39.3516 633.202 38.3272 633.202C37.3028 633.202 36.4113 631.103 35.9184 627.965C35.6698 626.38 34.4225 625.134 32.8409 624.885C29.7034 624.394 27.5989 623.5 27.5989 622.475C27.5989 621.449 29.7013 620.549 32.8366 620.062C34.4225 619.815 35.6698 618.567 35.9184 616.98C36.4091 613.84 37.3028 611.738 38.3272 611.738C39.3516 611.738 40.2431 613.838 40.736 616.98C40.9846 618.565 42.2319 619.813 43.8178 620.062C46.951 620.551 49.047 621.445 49.047 622.475V622.475Z" fill="white"/>
<path d="M519.388 458.342C519.141 459.459 516.638 459.927 513.104 459.706C511.319 459.594 509.66 460.654 509.009 462.32C507.716 465.621 506.238 467.695 505.123 467.448C504.007 467.202 503.54 464.697 503.76 461.16C503.872 459.373 502.813 457.713 501.148 457.061C497.847 455.768 495.769 454.288 496.015 453.171C496.264 452.047 498.769 451.58 502.305 451.803C504.092 451.916 505.753 450.857 506.407 449.188C507.699 445.883 509.178 443.809 510.295 444.058C511.411 444.305 511.878 446.81 511.658 450.351C511.546 452.139 512.607 453.799 514.274 454.451C517.57 455.74 519.641 457.22 519.392 458.344L519.388 458.342Z" fill="white"/>
<path d="M591.453 79.1495C591.453 80.4963 588.693 81.6716 584.572 82.3193C582.491 82.6453 580.852 84.286 580.526 86.3685C579.879 90.4927 578.706 93.2551 577.358 93.2551C576.01 93.2551 574.838 90.4927 574.191 86.3685C573.865 84.286 572.226 82.6453 570.145 82.3193C566.019 81.6716 563.252 80.4985 563.252 79.1495C563.252 77.8005 566.017 76.6188 570.138 75.9754C572.221 75.6515 573.865 74.0087 574.191 71.9241C574.838 67.7955 576.01 65.0332 577.356 65.0332C578.702 65.0332 579.876 67.7955 580.522 71.9241C580.847 74.0087 582.489 75.6494 584.574 75.9754C588.693 76.6188 591.451 77.794 591.451 79.1495H591.453Z" fill="white"/>
<path d="M500.529 282.977C502.073 281.431 502.073 278.926 500.529 277.381C498.985 275.835 496.481 275.835 494.937 277.381C493.393 278.926 493.393 281.431 494.937 282.977C496.481 284.522 498.985 284.522 500.529 282.977Z" fill="white"/>
<path d="M519.243 556.851C519.449 554.822 517.972 553.01 515.944 552.804C513.917 552.598 512.106 554.076 511.9 556.105C511.694 558.134 513.171 559.946 515.198 560.153C517.226 560.359 519.037 558.881 519.243 556.851Z" fill="white"/>
<path d="M396.771 544.406C399.275 543.752 400.776 541.19 400.123 538.683C399.469 536.177 396.909 534.675 394.405 535.329C391.9 535.983 390.399 538.545 391.052 541.051C391.706 543.558 394.266 545.06 396.771 544.406Z" fill="white"/>
<path d="M35.3502 175.432C36.1557 172.455 34.397 169.388 31.422 168.582C28.4471 167.775 25.3824 169.535 24.5769 172.513C23.7714 175.49 25.5301 178.557 28.5051 179.363C31.48 180.169 34.5447 178.409 35.3502 175.432Z" fill="white"/>
<path d="M517.235 6.75502C518.78 5.20974 518.78 2.70435 517.235 1.15907C515.691 -0.386209 513.188 -0.386217 511.644 1.15906C510.099 2.70434 510.099 5.20973 511.644 6.75501C513.188 8.30029 515.691 8.30029 517.235 6.75502Z" fill="white"/>
<path d="M126.715 23.6326C129.765 23.1884 131.877 20.354 131.434 17.3018C130.99 14.2496 128.157 12.1353 125.107 12.5795C122.057 13.0237 119.945 15.8581 120.389 18.9103C120.832 21.9625 123.665 24.0768 126.715 23.6326Z" fill="white"/>
<path d="M5.27204 587.782C7.72445 587.782 9.71253 585.793 9.71253 583.338C9.71253 580.884 7.72445 578.895 5.27204 578.895C2.81962 578.895 0.831543 580.884 0.831543 583.338C0.831543 585.793 2.81962 587.782 5.27204 587.782Z" fill="white"/>
<path d="M577.703 230.311C578.827 230.311 579.737 229.4 579.737 228.276C579.737 227.151 578.827 226.24 577.703 226.24C576.58 226.24 575.67 227.151 575.67 228.276C575.67 229.4 576.58 230.311 577.703 230.311Z" fill="white"/>
<path d="M407.272 652.596C408.001 651.481 407.689 649.986 406.575 649.256C405.461 648.526 403.966 648.839 403.237 649.954C402.508 651.069 402.82 652.564 403.934 653.294C405.049 654.023 406.543 653.711 407.272 652.596Z" fill="white"/>
<path d="M169.588 121.452C170.874 120.526 171.167 118.732 170.241 117.444C169.316 116.157 167.523 115.864 166.236 116.79C164.95 117.716 164.657 119.511 165.582 120.798C166.508 122.085 168.301 122.378 169.588 121.452Z" fill="white"/>
<path d="M70.7672 238.941C70.8465 240.526 69.6271 241.875 68.0455 241.955C66.4617 242.034 65.1137 240.814 65.0344 239.231C64.9551 237.646 66.1745 236.297 67.7562 236.218C69.3399 236.138 70.6879 237.358 70.7672 238.941Z" fill="white"/>
<path d="M47.041 431.177C47.0389 432.44 46.0145 433.461 44.7522 433.459C43.4899 433.457 42.4698 432.432 42.4719 431.169C42.4741 429.905 43.4985 428.885 44.7608 428.887C46.023 428.889 47.0432 429.914 47.041 431.177Z" fill="white"/>
<path d="M7.56813 395.34C9.55539 393.727 9.8595 390.807 8.24737 388.818C6.63524 386.829 3.71736 386.525 1.7301 388.138C-0.257168 389.752 -0.561277 392.672 1.05085 394.66C2.66298 396.649 5.58086 396.954 7.56813 395.34Z" fill="white"/>
</g>
<defs>
<clipPath id="clip0_87_1439">
<rect width="591.454" height="653.739" fill="white"/>
</clipPath>
</defs>
</svg>
