<svg width="308" height="300" viewBox="0 0 308 300" fill="none" xmlns="http://www.w3.org/2000/svg">
<ellipse cx="153.659" cy="150" rx="153.659" ry="150" fill="#DBDBDB"/>
<path d="M82.8105 185.399L103.771 206.359L124.731 227.319C118.87 229.706 112.434 230.311 106.231 229.058C100.027 227.805 94.3309 224.749 89.8557 220.274C85.3804 215.799 82.3249 210.103 81.0717 203.899C79.8185 197.696 80.4234 191.26 82.8105 185.399ZM218.916 94.3543L230.654 82.6165C231.381 81.9134 231.962 81.0724 232.362 80.1425C232.761 79.2126 232.971 78.2124 232.98 77.2004C232.989 76.1884 232.796 75.1847 232.413 74.248C232.03 73.3113 231.464 72.4603 230.748 71.7446C230.032 71.029 229.181 70.463 228.245 70.0798C227.308 69.6965 226.304 69.5037 225.292 69.5125C224.28 69.5213 223.28 69.7316 222.35 70.131C221.42 70.5305 220.579 71.1111 219.876 71.8391L208.123 83.5922C197.6 75.2302 184.726 70.3673 171.303 69.684C157.879 69.0006 144.578 72.531 133.26 79.7812L91.3395 105.696C86.4237 108.734 82.2589 112.845 79.1571 117.72C76.0552 122.596 74.0966 128.11 73.428 133.85C72.7593 139.59 73.3979 145.407 75.296 150.865C77.1941 156.323 80.3024 161.281 84.3882 165.368L137.429 218.409C141.524 222.505 146.493 225.618 151.964 227.517C157.434 229.415 163.264 230.048 169.015 229.369C174.766 228.69 180.288 226.715 185.166 223.595C190.044 220.474 194.151 216.288 197.178 211.351L224.617 166.565C230.924 155.317 233.749 142.449 232.734 129.594C231.719 116.738 226.91 104.473 218.916 94.3543Z" fill="#244DDD"/>
</svg>
