<svg width="18" height="18" viewBox="0 0 18 18" fill="none" xmlns="http://www.w3.org/2000/svg">
    <g clip-path="url(#s8uxwh754a)">
        <path d="M12.375 9a1.87 1.87 0 0 0 1.867-1.875 1.87 1.87 0 0 0-1.867-1.875 1.876 1.876 0 0 0 0 3.75zM6.75 8.25A2.24 2.24 0 0 0 8.992 6 2.247 2.247 0 1 0 4.5 6a2.247 2.247 0 0 0 2.25 2.25zm5.625 2.25c-1.373 0-4.125.69-4.125 2.063v1.687h8.25v-1.688c0-1.372-2.752-2.062-4.125-2.062zM6.75 9.75c-1.747 0-5.25.877-5.25 2.625v1.875h5.25v-1.688c0-.637.247-1.755 1.777-2.602-.652-.135-1.282-.21-1.777-.21z" fill="#323232"/>
    </g>
    <defs>
        <clipPath id="s8uxwh754a">
            <path fill="#fff" d="M0 0h18v18H0z"/>
        </clipPath>
    </defs>
</svg>
