<svg width="18" height="18" viewBox="0 0 18 18" fill="none" xmlns="http://www.w3.org/2000/svg">
    <g clip-path="url(#3i35ov959a)">
        <path d="m15.307 6.308-3.622-3.623a1.498 1.498 0 0 0-1.058-.435H3.75c-.825 0-1.5.675-1.5 1.5v10.5c0 .825.675 1.5 1.5 1.5h10.5c.825 0 1.5-.675 1.5-1.5V7.372c0-.397-.158-.78-.443-1.064zM5.25 5.25h5.25v1.5H5.25v-1.5zm7.5 7.5h-7.5v-1.5h7.5v1.5zm0-3h-7.5v-1.5h7.5v1.5z" fill="#323232"/>
    </g>
    <defs>
        <clipPath id="3i35ov959a">
            <path fill="#fff" d="M0 0h18v18H0z"/>
        </clipPath>
    </defs>
</svg>
