<svg width="300" height="92" viewBox="0 0 300 92" fill="none" xmlns="http://www.w3.org/2000/svg">
<rect width="300" height="92" rx="8" fill="#F5F5F5"/>
<g clip-path="url(#clip0_1_3688)">
<path d="M152.5 30.5L147.812 36.75L151.375 41.5L149.375 43C147.262 40.1875 143.75 35.5 143.75 35.5L136.25 45.5H163.75L152.5 30.5Z" fill="#DDDDDD"/>
</g>
<path d="M125.46 55.124V65.912H126.444V55.124H125.46ZM120.768 55.952C119.172 55.952 118.032 57.416 118.032 59.708C118.032 62 119.172 63.464 120.768 63.464C122.364 63.464 123.504 62 123.504 59.708C123.504 57.416 122.364 55.952 120.768 55.952ZM120.768 56.84C121.812 56.84 122.556 57.968 122.556 59.708C122.556 61.46 121.812 62.588 120.768 62.588C119.712 62.588 118.968 61.46 118.968 59.708C118.968 57.968 119.712 56.84 120.768 56.84ZM128.699 56.18V63.176H133.643V56.18H128.699ZM132.683 56.972V62.396H129.659V56.972H132.683ZM135.899 55.124V65.912H136.883V55.124H135.899ZM142.354 57.044H144.886V56.228H138.874V57.044H141.37V58.412C141.37 60.272 140.062 62.3 138.514 63.032L139.09 63.824C140.314 63.2 141.37 61.844 141.862 60.272C142.378 61.748 143.434 62.984 144.682 63.56L145.234 62.768C143.65 62.096 142.354 60.236 142.354 58.412V57.044ZM146.338 55.136V65.888H147.322V55.136H146.338ZM158.921 64.952H153.989V63.56H158.921V64.952ZM158.921 62.792H153.989V61.424H153.017V65.744H159.905V61.424H158.921V62.792ZM153.977 59.792C152.909 59.792 152.141 59.096 152.141 58.112C152.141 57.128 152.909 56.444 153.977 56.444C155.045 56.444 155.813 57.128 155.813 58.112C155.813 59.096 155.045 59.792 153.977 59.792ZM158.909 55.136V57.692H156.713C156.509 56.444 155.429 55.628 153.977 55.628C152.369 55.628 151.205 56.636 151.205 58.112C151.205 59.6 152.369 60.608 153.977 60.608C155.453 60.608 156.533 59.768 156.725 58.496H158.909V60.908H159.905V55.136H158.909ZM166.84 63.752V61.724H170.284V60.932H163.66V59.192H170.032V55.916H162.664V56.72H169.072V58.4H162.688V61.724H165.844V63.752H161.464V64.556H171.244V63.752H166.84ZM180.543 60.284H174.123V56.924H180.435V56.108H173.151V61.088H180.543V60.284ZM171.903 63.62V64.436H181.671V63.62H171.903Z" fill="#D3D3D3"/>
<defs>
<clipPath id="clip0_1_3688">
<rect width="30" height="30" fill="white" transform="translate(135 23)"/>
</clipPath>
</defs>
</svg>
